<?xml version="1.0" encoding="us-ascii" standalone="no"?><svg xmlns="http://www.w3.org/2000/svg" xmlns:xlink="http://www.w3.org/1999/xlink" contentStyleType="text/css" height="192px" preserveAspectRatio="none" style="width:568px;height:192px;background:#FFFFFF;" version="1.1" viewBox="0 0 568 192" width="568px" zoomAndPan="magnify"><defs/><g><line style="stroke:#181818;stroke-width:0.5;stroke-dasharray:5.0,5.0;" x1="301" x2="301" y1="36.2969" y2="156.8281"/><line style="stroke:#181818;stroke-width:0.5;stroke-dasharray:5.0,5.0;" x1="377" x2="377" y1="36.2969" y2="156.8281"/><rect fill="#E2E2F0" height="30.2969" rx="2.5" ry="2.5" style="stroke:#181818;stroke-width:0.5;" width="65" x="269" y="5"/><text fill="#000000" font-family="sans-serif" font-size="14" lengthAdjust="spacing" textLength="51" x="276" y="24.9951">&#21442;&#19982;&#26041;A</text><rect fill="#E2E2F0" height="30.2969" rx="2.5" ry="2.5" style="stroke:#181818;stroke-width:0.5;" width="65" x="269" y="155.8281"/><text fill="#000000" font-family="sans-serif" font-size="14" lengthAdjust="spacing" textLength="51" x="276" y="175.8232">&#21442;&#19982;&#26041;A</text><rect fill="#FFA500" height="30.2969" rx="2.5" ry="2.5" style="stroke:#181818;stroke-width:0.5;" width="66" x="344" y="5"/><text fill="#000000" font-family="sans-serif" font-size="14" lengthAdjust="spacing" textLength="52" x="351" y="24.9951">&#21442;&#19982;&#26041;B</text><rect fill="#FFA500" height="30.2969" rx="2.5" ry="2.5" style="stroke:#181818;stroke-width:0.5;" width="66" x="344" y="155.8281"/><text fill="#000000" font-family="sans-serif" font-size="14" lengthAdjust="spacing" textLength="52" x="351" y="175.8232">&#21442;&#19982;&#26041;B</text><polygon fill="#181818" points="365,81.5625,375,85.5625,365,89.5625,369,85.5625" style="stroke:#181818;stroke-width:1.0;"/><line style="stroke:#181818;stroke-width:1.0;" x1="301.5" x2="371" y1="85.5625" y2="85.5625"/><text fill="#000000" font-family="sans-serif" font-size="13" font-weight="bold" lengthAdjust="spacing" textLength="9" x="308.5" y="80.4966">1</text><text fill="#000000" font-family="sans-serif" font-size="13" lengthAdjust="spacing" textLength="15" x="321.5" y="80.4966">T1</text><path d="M93,51.2969 L93,106.2969 L296,106.2969 L296,61.2969 L286,51.2969 L93,51.2969 " fill="#FEFFDD" style="stroke:#181818;stroke-width:0.5;"/><path d="M286,51.2969 L286,61.2969 L296,61.2969 L286,51.2969 " fill="#FEFFDD" style="stroke:#181818;stroke-width:0.5;"/><text fill="#000000" font-family="sans-serif" font-size="13" lengthAdjust="spacing" textLength="136" x="99" y="68.3638">&#35299;&#30721;SM2&#23494;&#25991;&#65292;&#33719;&#21462;C1</text><text fill="#000000" font-family="sans-serif" font-size="13" lengthAdjust="spacing" textLength="182" x="99" y="83.4966">&#29983;&#25104;&#38543;&#26426;&#25968;w&#65292;w&#33539;&#22260;&#26159;[1, n-1]</text><text fill="#000000" font-family="sans-serif" font-size="13" lengthAdjust="spacing" textLength="111" x="99" y="98.6294">&#35745;&#31639;T1 = [w] * C1</text><polygon fill="#0000FF" points="312.5,134.8281,302.5,138.8281,312.5,142.8281,308.5,138.8281" style="stroke:#0000FF;stroke-width:1.0;"/><line style="stroke:#0000FF;stroke-width:1.0;" x1="306.5" x2="376" y1="138.8281" y2="138.8281"/><text fill="#000000" font-family="sans-serif" font-size="13" font-weight="bold" lengthAdjust="spacing" textLength="9" x="318.5" y="133.7622">2</text><text fill="#000000" font-family="sans-serif" font-size="13" lengthAdjust="spacing" textLength="15" x="331.5" y="133.7622">T2</text><path d="M382,116.6953 L382,141.6953 L561,141.6953 L561,126.6953 L551,116.6953 L382,116.6953 " fill="#FEFFDD" style="stroke:#181818;stroke-width:0.5;"/><path d="M551,116.6953 L551,126.6953 L561,126.6953 L551,116.6953 " fill="#FEFFDD" style="stroke:#181818;stroke-width:0.5;"/><text fill="#000000" font-family="sans-serif" font-size="13" lengthAdjust="spacing" textLength="158" x="388" y="133.7622">&#35745;&#31639;T2 = [d2 ^ (-1)] * T1</text><path d="M5,116.6953 L5,141.6953 L297,141.6953 L297,126.6953 L287,116.6953 L5,116.6953 " fill="#FEFFDD" style="stroke:#181818;stroke-width:0.5;"/><path d="M287,116.6953 L287,126.6953 L297,126.6953 L287,116.6953 " fill="#FEFFDD" style="stroke:#181818;stroke-width:0.5;"/><text fill="#000000" font-family="sans-serif" font-size="13" lengthAdjust="spacing" textLength="271" x="11" y="133.7622">&#35745;&#31639;(x2, y2) = [w^(-1) * d1^(-1)] * T2 - C1</text></g></svg>