<svg xmlns="http://www.w3.org/2000/svg" fill="none" viewBox="0 0 1542 1580" height="1580" width="1542">
<path fill="white" d="M24.333 1248.3C14.959 1248.3 7.33301 1240.67 7.33301 1231.3V509.832C7.33301 500.458 14.959 492.832 24.333 492.832H1310.76C1320.13 492.832 1327.76 500.458 1327.76 509.832V1231.3C1327.76 1240.67 1320.13 1248.3 1310.76 1248.3H24.333Z"></path>
<path fill="black" d="M1310.75 499.832C1316.27 499.832 1320.75 504.318 1320.75 509.832V1231.3C1320.75 1236.81 1316.27 1241.3 1310.75 1241.3H24.333C18.819 1241.3 14.333 1236.81 14.333 1231.3V509.832C14.333 504.318 18.819 499.832 24.333 499.832H1310.75ZM1310.75 485.832H24.333C11.133 485.832 0.333008 496.632 0.333008 509.832V1231.3C0.333008 1244.5 11.133 1255.3 24.333 1255.3H1310.76C1323.96 1255.3 1334.76 1244.5 1334.76 1231.3V509.832C1334.75 496.632 1323.96 485.832 1310.75 485.832Z"></path>
<path fill="#FF3F08" d="M81.7622 574.933C93.5568 574.933 103.118 565.371 103.118 553.577C103.118 541.782 93.5568 532.221 81.7622 532.221C69.9676 532.221 60.4058 541.782 60.4058 553.577C60.4058 565.371 69.9676 574.933 81.7622 574.933Z"></path>
<path fill="#315BF4" d="M154.982 574.933C166.777 574.933 176.338 565.371 176.338 553.577C176.338 541.782 166.777 532.221 154.982 532.221C143.187 532.221 133.626 541.782 133.626 553.577C133.626 565.371 143.187 574.933 154.982 574.933Z"></path>
<path fill="#315BF4" d="M224.388 574.933C236.183 574.933 245.744 565.371 245.744 553.577C245.744 541.782 236.183 532.221 224.388 532.221C212.594 532.221 203.032 541.782 203.032 553.577C203.032 565.371 212.594 574.933 224.388 574.933Z"></path>
<path fill="black" d="M1314.3 605.982H22.061V621.32H1314.3V605.982Z"></path>
<path fill="#D2E9FE" d="M236.388 693.77C231.027 698.643 225.969 703.651 221.995 709.755C217.245 717.05 212.969 724.652 208.199 731.941C203.463 739.177 198.712 746.399 193.995 753.649C190.207 759.47 184.88 764.85 182.534 771.444C180.801 776.314 187.1 781.034 191.348 778.22C195.272 775.62 196.055 772.511 198.336 768.723C200.982 764.332 205.599 760.567 209.25 757.016C218.115 748.396 227.788 740.656 237.035 732.459C241.725 728.302 246.396 724.141 251.366 720.317C255.711 716.974 259.333 712.964 263.46 709.389C267.732 705.688 272.004 702.252 275.963 698.182C279.856 694.18 283.678 690.087 288.32 686.937C285.382 684.678 282.444 682.419 279.506 680.161C278.608 683.282 275.182 685.452 273.319 688.057C270.857 691.499 270.339 695.667 268.316 699.342C263.88 707.402 258.879 715.508 253.385 722.875C247.645 730.573 243.949 739.56 238.437 747.435C235.679 751.375 233.127 755.273 231.452 759.807C230.062 763.568 229.301 769.403 226.556 772.464C229.899 774.41 233.242 776.356 236.584 778.302C238.021 774.138 243.092 770.428 246.104 767.34C249.827 763.523 253.58 759.567 257.817 756.316C261.647 753.378 265.778 750.709 269.026 747.094C270.576 745.37 271.837 743.388 273.509 741.773C275.528 739.823 278.049 738.472 280.269 736.768C289.782 729.465 298.396 720.628 307.553 712.844C312.112 708.968 317.379 705.648 321.612 701.425C325.226 697.821 328.231 694.386 333.054 692.305C330.116 691.11 327.178 689.915 324.24 688.72C323.835 687.525 325.163 687.032 324.119 687.889C323.795 688.156 323.291 689.332 323.115 689.612C322.308 690.895 321.405 692.114 320.474 693.309C318.582 695.734 316.47 697.988 314.656 700.473C311.635 704.612 309.395 709.231 306.698 713.569C303.799 718.23 299.693 722.048 296.476 726.493C290.349 734.96 286.479 744.894 279.844 753.008C274.88 759.077 268.266 766.528 270.804 775.005C271.491 777.3 273.977 779.704 276.59 779.41C281.946 778.806 283.975 775.794 286.837 771.662C290.068 766.998 295.127 762.542 299.623 759.085C301.681 757.503 304.018 756.343 306.055 754.717C308.555 752.721 310.716 750.345 313.129 748.247C318.373 743.687 324.259 739.843 330.085 736.077C341.057 728.984 351.901 721.914 362.615 714.434C367.915 710.733 373.335 707.055 378.93 703.813C381.125 702.541 383.486 701.545 385.566 700.087C386.895 699.155 389.443 696.217 391.098 696.207C390.566 692.278 390.035 688.35 389.503 684.421C382.386 687.149 379.103 693.78 375.031 699.747C369.581 707.735 364.32 715.985 358.445 723.665C355.643 727.328 353.279 731.061 351.096 735.119C348.627 739.707 345.412 743.453 342.146 747.482C339.311 750.98 336.976 754.5 334.911 758.492C332.977 762.229 329.741 764.788 327.84 768.482C325.086 773.835 330.64 779.565 336.049 776.691C340.213 774.479 342.949 770.72 346.741 768.06C350.771 765.232 355.4 763.6 359.4 760.616C363.245 757.748 367.524 755.77 371.557 753.212C373.557 751.943 375.466 750.498 377.212 748.897C377.91 748.257 379.611 746.168 379.956 746.193C387.66 746.764 387.623 734.761 379.956 734.193C375.482 733.862 372.344 736.881 369.361 739.774C365.455 743.564 360.336 745.402 355.88 748.414C351.471 751.393 347.372 754.016 342.686 756.54C337.893 759.121 334.738 763.809 329.992 766.331C332.728 769.067 335.465 771.804 338.201 774.54C339.815 771.404 342.807 769.105 344.561 765.934C346.484 762.456 348.116 759.089 350.631 755.97C353.579 752.314 356.844 748.88 359.361 744.896C361.653 741.27 363.328 737.318 365.786 733.787C370.78 726.611 375.776 719.45 380.758 712.26C382.851 709.24 385.068 706.332 387.05 703.237C388.349 701.21 390.272 696.923 392.693 695.995C398.692 693.696 398.3 684.164 391.098 684.209C385.772 684.243 382.718 687.759 378.52 690.414C373.237 693.755 367.703 696.671 362.455 700.123C351.388 707.403 340.744 715.191 329.505 722.232C323.716 725.858 317.959 729.562 312.458 733.617C307.208 737.488 302.749 742.401 297.502 746.179C292.72 749.622 288.25 752.971 283.97 757.081C281.715 759.246 279.435 761.476 277.579 763.999C276.994 764.794 276.328 765.663 275.901 766.557C275.088 768.258 273.943 767.71 276.59 767.412C278.518 768.881 280.447 770.349 282.376 771.817C281.555 769.075 285.401 765.064 286.997 763.091C290.005 759.371 292.906 755.682 295.407 751.59C298.23 746.971 300.697 742.144 303.537 737.535C306.481 732.759 310.149 728.772 313.624 724.406C319.223 717.371 322.565 709.608 327.577 703.503C331.268 699.005 338.011 692.009 335.812 685.533C334.455 681.534 330.672 680.362 326.998 681.948C322.308 683.971 318.024 687.502 314.63 691.278C310.536 695.831 305.212 699.168 300.544 703.11C290.345 711.721 280.759 721.813 269.858 729.459C265.646 732.414 263.055 736.137 259.499 739.714C255.712 743.523 250.992 746.243 246.954 749.761C242.463 753.674 238.409 758.113 234.261 762.378C230.486 766.26 226.818 769.885 225.013 775.117C223.072 780.744 231.106 785.344 235.041 780.954C237.96 777.699 239.181 773.839 240.667 769.8C242.566 764.635 244.249 760.109 247.375 755.534C253.294 746.874 257.588 737.035 263.937 728.719C269.559 721.354 274.722 712.889 279.056 704.694C280.996 701.026 281.578 696.648 284.306 693.534C287.141 690.299 289.853 687.614 291.079 683.356C292.461 678.554 286.678 673.586 282.265 676.58C273.199 682.732 266.714 691.607 258.165 698.344C253.853 701.741 250.228 705.821 246.036 709.341C241.153 713.442 236.098 717.289 231.314 721.523C222.269 729.529 212.888 737.183 204.047 745.415C199.926 749.252 195.788 753.21 192.045 757.421C190.449 759.216 188.838 761.123 187.666 763.227C186.945 764.52 186.532 767.041 185.293 767.861C188.231 770.12 191.169 772.379 194.107 774.637C195.146 771.718 197.738 769.239 199.549 766.794C201.612 764.009 203.48 761.077 205.356 758.164C209.709 751.407 214.164 744.726 218.563 738C223.025 731.178 227.151 724.158 231.468 717.246C235.109 711.417 239.82 706.854 244.876 702.258C250.601 697.049 242.094 688.583 236.388 693.77Z"></path>
<path fill="#D2E9FE" d="M481.735 673.658C476.387 676.235 470.645 677.569 465.95 681.356C461.68 684.801 458.321 689.24 454.39 693.047C444.773 702.361 434.645 711.088 424.817 720.168C420.07 724.553 415.707 729.326 411.071 733.824C406.165 738.584 400.76 742.714 395.609 747.19C390.486 751.642 385.904 756.651 381.241 761.571C377.83 765.169 373.521 768.556 371.294 773.068C370.374 774.931 370.054 777.286 371.294 779.126C376.78 787.263 387.151 781.532 393.545 777.689C404.873 770.88 415.282 762.795 426.748 756.168C432.924 752.598 438.58 748.221 444.755 744.691C451.012 741.114 457.34 737.713 463.564 734.068C474.596 727.609 487.886 724.594 497.341 715.677C494.512 712.848 491.684 710.019 488.856 707.191C485.841 710.1 482.712 712.915 479.731 715.854C477.12 718.428 474.956 721.375 472.01 723.604C468.94 725.927 465.501 727.723 462.429 730.054C459.056 732.614 455.874 735.445 452.6 738.131C448.653 741.368 445.132 744.563 441.817 748.421C438.852 751.872 435.131 755.735 433.629 760.123C432.064 764.696 434.491 769.27 439.302 770.377C444.148 771.492 449.419 768.548 453.454 766.214C465.496 759.248 477.768 752.245 489.318 744.505C497.036 739.334 506.47 735.987 515.004 732.267C519.343 730.375 523.827 728.883 528.233 727.165C530.417 726.313 532.611 725.469 534.772 724.561C536.732 723.737 538.831 722.1 540.987 722.014C538.987 720.014 536.987 718.014 534.987 716.014C535.165 714.456 533.463 716.939 532.949 717.411C532.055 718.232 531.102 718.993 530.152 719.747C528.023 721.437 525.874 723.076 523.791 724.826C518.118 729.591 514.791 735.532 510.33 741.299C507.413 745.069 503.655 749.346 505.46 754.506C508.273 762.546 517.195 760.281 523.049 757.868C526.362 756.502 529.873 755.635 533.062 753.96C536.407 752.203 539.517 749.876 542.561 747.657C548.949 743.003 555.025 737.945 561.007 732.785C567.154 727.483 573.102 721.807 579.848 717.26C582.54 715.446 585.384 713.889 588.146 712.19C589.498 711.358 592.521 708.815 594.069 709.333C592.672 706.873 591.275 704.413 589.878 701.952C588.928 704.277 585.107 706.744 583.48 708.741C580.607 712.267 577.492 715.515 574.534 718.962C568.905 725.521 564.337 732.905 558.451 739.253C552.677 745.48 547.422 751.588 543.157 758.957C540.12 764.204 539.782 772.056 547.527 773.207C552.838 773.996 557.415 770.246 561.365 767.233C568.402 761.867 575.466 756.513 582.085 750.63C595.623 738.599 609.518 727.34 624.599 717.266C633.115 711.578 641.845 706.151 651.124 701.786C655.515 699.72 660 697.778 664.472 695.893C668.75 694.089 672.238 692.916 674.993 688.961C677.991 684.657 673.019 678.626 668.217 680.148C664.286 681.394 661.817 683.685 659.36 686.908C656.449 690.726 653.466 694.416 650.389 698.1C644.195 705.516 638.658 713.524 631.758 720.329C625.025 726.97 617.694 732.526 611.502 739.755C605.26 747.042 599.124 754.412 592.874 761.688C590.717 764.199 590.505 767.669 592.874 770.172C600.245 777.961 611.513 769.396 617.724 764.417C621.11 761.703 624.143 758.515 627.711 756.042C634.19 751.551 640.755 747.037 647.343 742.704C660.572 734.003 675.595 728.341 689.325 720.524C696.507 716.435 704.172 713.787 711.789 710.658C717.267 708.408 724.106 707.502 727.422 702.099C729.594 698.56 727.353 694.581 723.837 693.285C717.751 691.042 711.6 698.395 708.046 702.265C702.02 708.829 696.282 715.68 690.457 722.422C682.979 731.076 675.702 739.973 667.847 748.288C663.947 752.416 660.043 756.346 656.362 760.669C653.245 764.329 649.686 766.957 648.319 771.789C647.277 775.473 650.214 779.478 654.105 779.384C659.7 779.249 665.473 775.68 669.814 772.384C675.524 768.049 680.893 763.529 686.78 759.397C692.622 755.297 697.864 750.415 703.89 746.565C708.958 743.327 716.243 742.256 719.569 736.984C722.81 731.846 716.427 725.782 711.36 728.775C708.825 730.272 706.796 732.446 704.139 733.731C697.188 737.091 703.266 747.443 710.196 744.094C712.876 742.799 714.878 740.637 717.417 739.138C714.681 736.402 711.944 733.665 709.208 730.929C709.792 730.003 707.081 731.559 706.647 731.74C705.685 732.142 704.711 732.527 703.76 732.954C700.873 734.251 698.203 735.904 695.601 737.699C690.461 741.244 685.823 745.444 680.724 749.035C676.007 752.357 671.188 755.415 666.847 759.241C663.822 761.907 658.521 767.278 654.105 767.384C656.033 769.916 657.962 772.447 659.891 774.979C660.705 772.103 664.945 768.99 666.84 766.65C669.899 762.873 673.613 759.682 676.932 756.132C683.685 748.909 690.002 741.257 696.466 733.777C702.117 727.237 707.804 720.73 713.475 714.209C715.167 712.264 716.866 710.325 718.675 708.486C719.581 707.566 720.889 706.695 721.645 705.667C722.869 704.002 723.366 705.858 720.649 704.856C719.454 701.918 718.259 698.98 717.064 696.042C716.609 696.783 713.06 697.215 712.134 697.564C708.549 698.918 705.041 700.508 701.462 701.891C694.922 704.419 688.587 707.099 682.505 710.606C670.584 717.48 657.943 722.835 645.902 729.522C639.87 732.872 634.552 737.308 628.799 741.087C624.039 744.214 619.287 747.108 615.032 750.93C612.446 753.253 609.863 755.588 607.015 757.592C605.364 758.754 603.561 760.065 601.668 760.811C599.165 761.798 600.225 760.485 601.362 761.686C601.362 764.515 601.362 767.342 601.362 770.17C607.224 763.345 612.963 756.427 618.828 749.604C624.702 742.772 631.057 737.211 637.71 731.198C644.428 725.126 649.834 717.849 655.457 710.798C658.104 707.478 660.924 704.309 663.595 701.011C665.58 698.561 668.312 692.697 671.409 691.715C669.15 688.777 666.892 685.839 664.633 682.901C663.576 684.418 658.455 685.509 656.746 686.259C652.852 687.968 648.918 689.609 645.07 691.419C637.979 694.755 631.199 698.717 624.6 702.935C611.258 711.461 598.902 720.992 586.508 730.808C574.978 739.94 564.583 750.288 552.606 758.926C551.935 759.41 548.452 760.933 548.278 761.442C549.065 762.179 549.852 762.918 550.639 763.655C551.776 766.167 552.65 766.761 553.26 765.438C553.718 765.124 554.029 763.999 554.294 763.53C555.253 761.833 556.286 760.185 557.428 758.605C561.773 752.594 567.392 747.646 571.976 741.825C577.172 735.228 582.075 728.614 587.719 722.387C590.254 719.591 592.346 716.404 595.022 713.736C597.798 710.969 599.939 708.839 601.451 705.137C602.724 702.021 600.035 698.685 597.261 697.756C591.888 695.957 586.541 699.088 582.091 701.825C576.96 704.982 571.92 708.044 567.181 711.793C555.345 721.157 544.682 731.888 532.135 740.363C529.074 742.43 526.303 743.963 522.825 745.187C521.352 745.706 519.897 746.229 518.459 746.842C517.97 747.062 517.481 747.282 516.993 747.502C514.3 748.103 514.219 749.865 516.749 752.793C517.707 752.251 519.15 749.392 519.871 748.468C522.014 745.723 523.778 742.74 525.803 739.913C531.735 731.628 545.721 727.083 546.989 716.01C547.348 712.868 543.948 709.892 540.989 710.01C536.572 710.186 533.182 712.23 529.217 713.933C524.731 715.86 520.072 717.341 515.537 719.14C511.021 720.932 506.586 722.922 502.188 724.985C497.888 727.002 493.316 728.469 489.074 730.574C485.018 732.586 481.462 735.507 477.63 737.897C473.948 740.194 470.126 742.273 466.358 744.424C460.239 747.916 454.333 751.715 448.293 755.324C446.48 756.407 442.97 757.244 441.509 758.575C443.4 759.505 444.558 761.258 444.983 763.835C444.806 764.383 444.9 764.277 445.266 763.515C446.055 762.844 446.67 761.392 447.306 760.551C449.702 757.382 452.39 754.26 455.27 751.521C462.275 744.857 470.254 739.547 478.069 733.962C485.152 728.9 491.078 721.718 497.343 715.673C502.917 710.295 494.473 701.893 488.858 707.189C480.945 714.652 469.143 717.123 459.806 722.377C449.088 728.408 438.58 734.631 428.246 741.261C417.87 747.917 407.301 753.937 397.176 761.014C393.793 763.379 390.339 765.649 386.783 767.748C385.222 768.669 383.63 769.606 381.967 770.332C381.626 770.48 380.273 770.893 380.113 771.043C378.551 772.512 378.195 767.926 381.658 773.064C381.658 775.083 381.658 777.103 381.658 779.122C383.737 774.91 388.446 771.411 391.631 768.036C396.081 763.321 400.559 758.657 405.513 754.463C415.235 746.232 423.966 737.276 433.305 728.649C442.676 719.992 452.316 711.655 461.532 702.824C465.233 699.277 468.47 695.26 472.217 691.774C476.53 687.762 482.581 686.529 487.795 684.016C494.746 680.667 488.667 670.316 481.735 673.658Z"></path>
<path fill="#D2E9FE" d="M236.388 962.186C231.027 967.059 225.969 972.067 221.995 978.171C217.245 985.466 212.969 993.067 208.199 1000.36C203.463 1007.59 198.712 1014.82 193.995 1022.07C190.207 1027.89 184.88 1033.27 182.534 1039.86C180.801 1044.73 187.1 1049.45 191.348 1046.64C195.272 1044.04 196.055 1040.93 198.336 1037.14C200.982 1032.75 205.599 1028.98 209.25 1025.43C218.115 1016.81 227.788 1009.07 237.035 1000.88C241.725 996.718 246.396 992.557 251.366 988.733C255.711 985.39 259.333 981.381 263.46 977.806C267.732 974.105 272.004 970.668 275.963 966.598C279.856 962.596 283.678 958.503 288.32 955.353C285.382 953.094 282.444 950.835 279.506 948.577C278.608 951.698 275.182 953.868 273.319 956.473C270.857 959.915 270.339 964.083 268.316 967.759C263.88 975.819 258.879 983.924 253.385 991.291C247.645 998.989 243.949 1007.98 238.437 1015.85C235.679 1019.79 233.127 1023.69 231.452 1028.22C230.062 1031.98 229.301 1037.82 226.556 1040.88C229.899 1042.83 233.242 1044.77 236.584 1046.72C238.021 1042.55 243.092 1038.84 246.104 1035.76C249.827 1031.94 253.58 1027.98 257.817 1024.73C261.647 1021.79 265.778 1019.13 269.026 1015.51C270.576 1013.79 271.837 1011.8 273.509 1010.19C275.528 1008.24 278.049 1006.89 280.269 1005.18C289.782 997.881 298.396 989.045 307.553 981.261C312.112 977.385 317.379 974.065 321.612 969.842C325.226 966.238 328.231 962.803 333.054 960.722C330.116 959.527 327.178 958.332 324.24 957.137C323.835 955.942 325.163 955.449 324.119 956.306C323.795 956.573 323.291 957.748 323.115 958.027C322.308 959.31 321.405 960.53 320.474 961.724C318.582 964.149 316.47 966.404 314.656 968.889C311.635 973.028 309.395 977.646 306.698 981.984C303.799 986.645 299.693 990.464 296.476 994.909C290.349 1003.38 286.479 1013.31 279.844 1021.42C274.88 1027.49 268.266 1034.94 270.804 1043.42C271.491 1045.72 273.977 1048.12 276.59 1047.83C281.946 1047.22 283.975 1044.21 286.837 1040.08C290.068 1035.41 295.127 1030.96 299.623 1027.5C301.681 1025.92 304.018 1024.76 306.055 1023.13C308.555 1021.14 310.716 1018.76 313.129 1016.66C318.373 1012.1 324.259 1008.26 330.085 1004.49C341.057 997.4 351.901 990.329 362.615 982.849C367.915 979.148 373.335 975.47 378.93 972.228C381.125 970.956 383.486 969.96 385.566 968.502C386.895 967.57 389.443 964.632 391.098 964.622C390.566 960.693 390.035 956.765 389.503 952.836C382.386 955.564 379.103 962.195 375.031 968.162C369.581 976.15 364.32 984.4 358.445 992.08C355.643 995.743 353.279 999.477 351.096 1003.53C348.627 1008.12 345.412 1011.87 342.146 1015.9C339.311 1019.4 336.976 1022.92 334.911 1026.91C332.977 1030.64 329.741 1033.2 327.84 1036.9C325.086 1042.25 330.64 1047.98 336.049 1045.11C340.213 1042.89 342.949 1039.14 346.741 1036.48C350.771 1033.65 355.4 1032.02 359.4 1029.03C363.245 1026.16 367.524 1024.19 371.557 1021.63C373.557 1020.36 375.466 1018.91 377.212 1017.31C377.91 1016.67 379.611 1014.58 379.956 1014.61C387.66 1015.18 387.623 1003.18 379.956 1002.61C375.482 1002.28 372.344 1005.3 369.361 1008.19C365.455 1011.98 360.336 1013.82 355.88 1016.83C351.471 1019.81 347.372 1022.43 342.686 1024.96C337.893 1027.54 334.738 1032.22 329.992 1034.75C332.728 1037.48 335.465 1040.22 338.201 1042.96C339.815 1039.82 342.807 1037.52 344.561 1034.35C346.484 1030.87 348.116 1027.5 350.631 1024.39C353.579 1020.73 356.844 1017.3 359.361 1013.31C361.653 1009.69 363.328 1005.73 365.786 1002.2C370.78 995.026 375.776 987.866 380.758 980.676C382.851 977.656 385.068 974.747 387.05 971.652C388.349 969.625 390.272 965.338 392.693 964.41C398.692 962.111 398.3 952.579 391.098 952.624C385.772 952.658 382.718 956.174 378.52 958.829C373.237 962.17 367.703 965.086 362.455 968.538C351.388 975.818 340.744 983.606 329.505 990.647C323.716 994.273 317.959 997.978 312.458 1002.03C307.208 1005.9 302.749 1010.82 297.502 1014.59C292.72 1018.04 288.25 1021.39 283.97 1025.5C281.715 1027.66 279.435 1029.89 277.579 1032.41C276.994 1033.21 276.328 1034.08 275.901 1034.97C275.088 1036.67 273.943 1036.13 276.59 1035.83C278.518 1037.3 280.447 1038.76 282.376 1040.23C281.555 1037.49 285.401 1033.48 286.997 1031.51C290.005 1027.79 292.906 1024.1 295.407 1020.01C298.23 1015.39 300.697 1010.56 303.537 1005.95C306.481 1001.17 310.149 997.188 313.624 992.822C319.223 985.787 322.565 978.023 327.577 971.917C331.268 967.42 338.011 960.424 335.812 953.948C334.455 949.949 330.672 948.777 326.998 950.363C322.308 952.386 318.024 955.916 314.63 959.692C310.536 964.245 305.212 967.582 300.544 971.524C290.345 980.135 280.759 990.227 269.858 997.873C265.646 1000.83 263.055 1004.55 259.499 1008.13C255.712 1011.94 250.992 1014.66 246.954 1018.18C242.463 1022.09 238.409 1026.53 234.261 1030.79C230.486 1034.67 226.818 1038.3 225.013 1043.53C223.072 1049.16 231.106 1053.76 235.041 1049.37C237.96 1046.11 239.181 1042.25 240.667 1038.21C242.566 1033.05 244.249 1028.52 247.375 1023.95C253.294 1015.29 257.588 1005.45 263.937 997.134C269.559 989.769 274.722 981.303 279.056 973.108C280.996 969.44 281.578 965.063 284.306 961.949C287.141 958.713 289.853 956.028 291.079 951.77C292.461 946.968 286.678 941.999 282.265 944.994C273.199 951.146 266.714 960.022 258.165 966.759C253.853 970.156 250.228 974.235 246.036 977.755C241.153 981.856 236.098 985.703 231.314 989.937C222.269 997.943 212.888 1005.6 204.047 1013.83C199.926 1017.67 195.788 1021.62 192.045 1025.84C190.449 1027.63 188.838 1029.54 187.666 1031.64C186.945 1032.93 186.532 1035.46 185.293 1036.28C188.231 1038.53 191.169 1040.79 194.107 1043.05C195.146 1040.13 197.738 1037.65 199.549 1035.21C201.612 1032.42 203.48 1029.49 205.356 1026.58C209.709 1019.82 214.164 1013.14 218.563 1006.41C223.025 999.592 227.151 992.572 231.468 985.66C235.109 979.831 239.82 975.268 244.876 970.672C250.601 965.466 242.094 956.999 236.388 962.186Z"></path>
<path fill="#D2E9FE" d="M425.899 954.455C418.98 969.061 411.994 983.645 405.535 998.465C402.433 1005.58 399.267 1012.34 395.313 1019.04C391.292 1025.86 387.46 1032.67 384.854 1040.17C383.376 1044.42 388.036 1048.93 392.235 1047.55C397.144 1045.93 401.273 1041.91 405.472 1038.98C410.735 1035.31 415.4 1031.03 420.38 1027.01C425.566 1022.82 431.102 1019.13 435.965 1014.55C440.496 1010.28 444.803 1005.79 449.552 1001.76C454.551 997.513 460.048 993.898 465.362 990.068C470.635 986.267 475.609 982.084 480.844 978.236C485.736 974.642 490.822 971.261 495.813 967.803C498.267 966.103 500.753 964.711 503.478 963.511C505.475 962.632 507.621 960.586 509.644 960.042C507.184 958.645 504.724 957.249 502.264 955.852C501.975 954.563 500.969 957.018 500.63 957.508C499.997 958.425 499.33 959.311 498.718 960.242C496.722 963.28 495.074 966.492 493.25 969.629C489.463 976.143 484.648 981.959 480.345 988.123C476.266 993.966 472.663 1000.12 468.841 1006.13C465.089 1012.02 460.212 1017.22 456.898 1023.37C455.029 1026.84 456.692 1031.03 460.483 1032.19C467.113 1034.21 473.387 1030.07 478.426 1026.2C485.372 1020.87 492.484 1015.82 499.643 1010.77C507.35 1005.34 514.831 1000.01 522.993 995.269C530.475 990.923 537.972 985.319 546.444 983.055C543.912 981.127 541.381 979.198 538.849 977.269C538.86 977.391 535.331 981.07 534.507 982.268C532.39 985.346 530.956 988.903 529.203 992.195C526.131 997.963 523.274 1003.94 519.762 1009.45C515.273 1016.5 509.947 1023.24 506.941 1031.12C505.617 1034.59 505.09 1038.77 507.957 1041.67C513.337 1047.12 521.567 1039.58 525.999 1036.17C531.857 1031.66 538.103 1027.06 543.22 1021.72C548.724 1015.97 554.399 1010.4 560.761 1005.6C567.859 1000.25 574.375 995.148 582.204 990.872C586.276 988.648 589.963 985.996 593.683 983.24C596.692 981.011 599.562 977.607 602.792 975.889C599.783 974.162 596.773 972.435 593.764 970.708C593.221 977.007 586.826 982.56 583.623 987.706C579.871 993.735 577.08 1000.3 573.417 1006.38C569.672 1012.6 565.408 1018.49 561.722 1024.74C560.052 1027.58 558.696 1030.55 556.698 1033.17C554.523 1036.02 553.215 1037.87 552.945 1041.55C552.622 1045.95 558.338 1049.22 561.973 1046.73C576.575 1036.74 588.946 1023.82 602.305 1012.29C607.759 1007.59 613.485 1003.21 618.939 998.525C620.609 997.09 622.237 995.608 623.947 994.218C624.814 993.513 625.88 992.894 626.688 992.137C628.705 990.249 628.473 992.625 624.244 990.763C623.527 988.027 622.809 985.29 622.092 982.554C616.379 993.206 609.746 1003.35 603.901 1013.94C599.629 1021.68 594.119 1030.29 595.656 1039.55C596.085 1042.14 599.007 1043.93 601.442 1043.96C609.327 1044.06 614.914 1039.47 620.835 1034.9C627.378 1029.86 633.663 1024.63 639.268 1018.53C650.385 1006.45 660.626 991.125 675.616 983.505C672.678 981.246 669.74 978.988 666.802 976.729C662.778 989.835 653.895 1000.56 649.112 1013.32C647.982 1016.33 647.251 1019.51 646.053 1022.49C645.034 1025.03 643.386 1027.21 642.132 1029.63C640.684 1032.42 639.668 1035.22 637.966 1037.86C636.245 1040.53 635.914 1042.63 636.527 1045.72C637.131 1048.77 641.006 1050.9 643.908 1049.91C648.753 1048.26 651.313 1044.91 654.719 1041.33C658.839 1037 663.904 1033.49 668.475 1029.66C672.877 1025.96 677.494 1022.72 681.289 1018.36C685.432 1013.6 689.191 1008.52 693.358 1003.78C709.194 985.745 724.612 966.706 745.986 954.994C752.76 951.282 746.712 940.916 739.929 944.632C719.144 956.021 704.185 973.708 688.611 991.087C680.718 999.894 674.005 1010.18 664.59 1017.43C659.935 1021.01 655.443 1024.86 650.934 1028.63C648.965 1030.28 647.092 1031.89 645.38 1033.8C644.106 1035.22 642.614 1037.7 640.718 1038.34C643.178 1039.74 645.638 1041.14 648.099 1042.53C648.567 1044.9 648.765 1043.71 649.773 1041.97C650.457 1040.8 650.862 1039.42 651.393 1038.18C652.54 1035.48 654.119 1033.12 655.492 1030.55C658.294 1025.3 659.299 1019.35 661.738 1013.94C666.972 1002.35 674.592 992.235 678.374 979.919C679.995 974.639 674.015 970.879 669.56 973.143C655.784 980.145 645.793 993.135 635.744 1004.44C630.51 1010.33 625.243 1016.01 619.175 1021.06C614.591 1024.88 607.776 1032.04 601.443 1031.96C603.372 1033.43 605.3 1034.89 607.229 1036.36C606.846 1034.05 608.78 1030.27 609.75 1028.22C611.825 1023.84 614.421 1019.67 616.695 1015.39C621.558 1006.24 627.554 997.746 632.455 988.609C633.853 986.002 633.359 981.746 630.302 980.4C624.665 977.919 620.07 981.992 615.871 985.399C610.981 989.366 606.102 993.396 601.27 997.432C586.061 1010.14 572.291 1025.16 555.918 1036.37C558.928 1038.09 561.937 1039.82 564.946 1041.55C564.919 1041.92 566.717 1039.8 566.904 1039.56C568.101 1037.97 569.033 1036.33 569.97 1034.58C571.658 1031.44 573.508 1028.42 575.432 1025.42C579.448 1019.16 583.652 1013.05 587.12 1006.46C590.274 1000.46 593.232 994.48 597.251 989C601.438 983.29 605.14 977.96 605.765 970.708C606.177 965.928 600.433 963.562 596.737 965.527C593.292 967.359 590.741 970.554 587.627 972.878C583.689 975.817 579.748 978.57 575.417 980.9C566.795 985.539 559.6 991.457 551.825 997.345C537.182 1008.43 526.26 1024.04 509.574 1032.54C511.593 1032.54 513.612 1032.54 515.631 1032.54C520.588 1035.41 516.549 1037.91 518.018 1035.65C518.395 1035.08 518.623 1034.16 518.94 1033.48C520.053 1031.12 521.444 1028.87 522.813 1026.66C525.149 1022.87 527.733 1019.26 530.124 1015.51C534.204 1009.12 537.664 1002.13 541.089 995.37C542.778 992.035 544.174 989.064 546.795 986.371C549.292 983.805 551.175 980.999 550.849 977.27C550.513 973.421 547.285 970.407 543.254 971.484C539.317 972.536 535.751 974.714 531.991 976.244C528.374 977.716 525.284 979.729 522.018 981.83C514.506 986.66 506.805 990.845 499.573 996.126C492.142 1001.55 484.453 1006.62 477.085 1012.14C474.314 1014.21 467.297 1021.72 463.672 1020.62C464.867 1023.56 466.062 1026.49 467.257 1029.43C470.972 1022.53 476.451 1016.58 480.625 1009.93C484.894 1003.12 489.08 996.3 493.855 989.826C498.743 983.2 502.945 976.425 507.172 969.379C510.345 964.089 515.324 959.317 513.833 952.664C513.121 949.487 509.466 947.663 506.452 948.473C503.895 949.161 502.214 950.794 499.967 952.032C497.719 953.272 495.25 954.009 493.017 955.324C487.963 958.301 483.191 962.003 478.359 965.33C467.475 972.825 456.846 981.063 446.328 989.071C436.283 996.72 428.006 1006.28 417.92 1013.87C412.781 1017.74 408.092 1022.12 402.994 1026.03C400.357 1028.05 397.53 1029.77 394.85 1031.73C393.053 1033.04 391.199 1035.27 389.043 1035.98C391.503 1038.44 393.963 1040.9 396.424 1043.36C398.868 1036.33 402.786 1030.02 406.539 1023.64C410.494 1016.91 413.426 1010.01 416.608 1002.91C422.985 988.689 429.588 974.596 436.259 960.513C439.549 953.57 429.207 947.472 425.899 954.455Z"></path>
<path fill="#D2E9FE" d="M770.668 948.127C758.858 963.03 749.296 979.571 738.253 995.037C732.884 1002.56 727.285 1009.96 722.279 1017.73C719.928 1021.37 717.946 1025.19 715.813 1028.96C714.182 1031.84 712.27 1034.69 712.627 1038.16C713.356 1045.24 721.086 1046.72 726.71 1044.76C732.704 1042.68 737.896 1038.56 742.809 1034.68C757.098 1023.41 769.215 1009.76 783.405 998.423C791.357 992.068 798.708 984.59 807.07 978.803C815.716 972.82 825.469 968.277 833.837 961.923C831.1 959.187 828.364 956.45 825.628 953.714C816.347 971.386 805.359 988.039 794.876 1005C789.63 1013.49 784.689 1022.16 779.499 1030.67C775.924 1036.54 773.047 1042.72 777.993 1048.7C779.335 1050.32 781.902 1050.74 783.83 1050.24C790.59 1048.49 796.174 1043.16 801.275 1038.62C807.256 1033.3 812.425 1027.11 817.717 1021.12C828.656 1008.76 839.116 995.379 851.695 984.61C857.635 979.524 865.283 976.058 871.753 971.626C873.452 970.462 875.154 969.299 876.902 968.209C877.41 967.892 878.874 967.32 879.19 966.834C879.448 966.685 879.705 966.536 879.963 966.387C878.266 965.218 876.568 964.048 874.871 962.879C874.38 963.254 873.921 967.41 873.676 968.254C872.62 971.9 871.697 975.685 870.203 979.185C868.666 982.786 866.322 985.958 864.35 989.323C860.28 996.272 857.322 1003.89 853.471 1010.98C850.033 1017.31 846.25 1023.32 841.95 1029.08C839.157 1032.83 834.779 1038.34 836.581 1043.36C837.545 1046.05 839.547 1047.55 842.367 1047.77C847.067 1048.14 850.24 1045.42 853.478 1042.42C857.369 1038.82 861.897 1035.95 866.076 1032.68C875.82 1025.07 884.792 1016.52 894.625 1008.99C904.13 1001.7 913.839 994.621 923.848 988.04C928.524 984.966 933.532 982.311 937.991 978.929C942.075 975.83 945.651 972.168 950.169 969.676C947.433 966.94 944.696 964.203 941.96 961.467C935.132 972.719 929.408 984.456 924.304 996.577C921.737 1002.67 918.341 1008.27 915.226 1014.09C912.568 1019.06 909.062 1023.95 907.564 1029.42C906.272 1034.14 911.957 1039.32 916.378 1036.19C922.271 1032.02 927.841 1026.49 932.967 1021.4C939.128 1015.28 945.179 1009.05 951.377 1002.96C957.504 996.944 963.984 991.717 971.019 986.811C974.086 984.671 977.153 982.458 980.545 980.856C984.106 979.175 987.921 978.085 991.488 976.404C992.178 976.079 994.161 975.47 994.569 974.907C992.959 969.322 991.353 967.721 989.75 970.104C989.486 970.391 989.221 970.677 988.957 970.964C986.601 973.081 984.739 975.822 982.96 978.421C978.037 985.61 973.141 992.814 968.166 999.972C962.952 1007.47 948.912 1022.41 954.854 1032.62C955.88 1034.39 957.953 1035.69 960.035 1035.6C970.862 1035.12 979.79 1024.94 987.499 1018.3C996.329 1010.7 1005.23 1003.15 1014.77 996.435C1024.29 989.734 1034.44 983.843 1044.33 977.711C1049.38 974.578 1054.67 971.878 1059.77 968.84C1061.28 967.939 1062.69 966.872 1064.17 965.915C1065.1 965.309 1068.29 963.336 1068.44 963.368C1066.97 961.439 1065.51 959.511 1064.04 957.582C1063.81 960.254 1060.82 962.983 1059.71 965.453C1058.54 968.046 1057.57 970.754 1056.65 973.442C1054.7 979.167 1051.41 984.91 1050.13 990.788C1049.55 993.478 1049.55 996.234 1048.68 998.864C1048.02 1000.86 1047 1002.74 1046.47 1004.79C1045.26 1009.5 1046.96 1014.98 1052.4 1015.81C1056.81 1016.48 1059.96 1013.26 1062.96 1010.56C1067.87 1006.15 1072.74 1002.2 1076.68 996.836C1080.41 991.755 1084.97 987.259 1089.5 982.865C1092.08 980.359 1094.7 978.21 1097.94 976.619C1099.43 975.889 1101.03 975.334 1102.44 974.451C1104.81 972.967 1105.08 973.575 1102.11 972.099C1101.19 970.904 1100.28 969.709 1099.36 968.514C1098.6 966.617 1099.83 965.929 1098.18 968.377C1097.4 969.525 1096.69 970.713 1095.98 971.905C1094.06 975.122 1092.21 978.31 1090 981.337C1086.32 986.359 1082.68 992.138 1083.66 998.565C1084.04 1001.03 1087.05 1003.08 1089.45 1002.97C1097.16 1002.61 1102.46 997.471 1108.09 992.759C1110.55 990.695 1112.83 988.528 1115.57 986.825C1117.33 985.73 1123.09 983.201 1123.87 981.075C1121.04 977.098 1119.56 976.065 1119.45 977.978C1119.43 978.357 1119.33 978.725 1119.17 979.081C1118.71 980 1118.44 981.081 1118.02 982.036C1116.95 984.437 1115.94 986.864 1114.85 989.254C1113.18 992.934 1111.27 996.504 1109.62 1000.2C1108.22 1003.33 1107.27 1006.79 1105.2 1009.56C1103.44 1011.9 1100.78 1013.91 1100.11 1016.93C1099.36 1020.35 1101.04 1023.72 1104.12 1025.38C1109.32 1028.19 1114.7 1024.8 1118.77 1021.63C1123.09 1018.26 1127.13 1014.34 1131.96 1011.55C1137.88 1008.12 1144.16 1004.45 1148.7 999.242C1145.56 996.818 1142.42 994.395 1139.28 991.971C1139.11 992.269 1138.95 992.567 1138.78 992.865C1133.95 998.807 1142.39 1007.35 1147.27 1001.35C1148.15 1000.26 1148.95 999.25 1149.64 998.027C1152.87 992.281 1144.84 985.466 1140.22 990.756C1135.01 996.716 1127.59 999.424 1121.48 1004.18C1118.86 1006.22 1116.26 1008.3 1113.68 1010.39C1112.63 1011.24 1111.63 1012.14 1110.53 1012.92C1109.9 1013.38 1109.23 1013.8 1108.55 1014.19C1107.71 1014.55 1107.91 1014.56 1109.14 1014.24C1110.06 1015.43 1110.97 1016.63 1111.89 1017.82C1112.42 1020.08 1112.19 1019.89 1113.73 1018.02C1114.36 1017.25 1114.98 1016.46 1115.56 1015.65C1116.87 1013.77 1117.76 1011.74 1118.61 1009.63C1120.59 1004.74 1123.01 1000.1 1125.21 995.31C1127.78 989.72 1132.77 981.862 1131.16 975.48C1130.33 972.157 1127.43 969.752 1124.07 969.368C1119.28 968.822 1116.48 972.035 1112.87 974.464C1108.89 977.142 1105.12 979.522 1101.47 982.692C1098.48 985.293 1093.65 990.773 1089.45 990.971C1091.38 992.439 1093.31 993.908 1095.23 995.376C1095.24 995.412 1096.83 992.849 1097.02 992.492C1097.87 990.947 1098.82 989.524 1099.84 988.093C1102.18 984.794 1104.26 981.439 1106.34 977.964C1108.92 973.633 1114.25 967.538 1109.39 962.678C1103.87 957.162 1096.93 963.766 1091.89 966.261C1084.32 970.004 1078.85 976.681 1072.99 982.557C1070.24 985.307 1068.18 988.438 1065.79 991.476C1063.22 994.744 1059.96 997.428 1056.8 1000.1C1055.81 1000.94 1054.37 1001.77 1053.64 1002.88C1053.26 1003.23 1052.89 1003.58 1052.52 1003.93C1055.67 1008.92 1057.57 1010.09 1058.21 1007.44C1059.52 1005.94 1060.34 1002.05 1060.79 1000.06C1061.66 996.161 1061.81 992.636 1063.58 988.971C1065.25 985.5 1066.49 981.913 1067.69 978.258C1068.8 974.875 1069.85 971.291 1071.76 968.26C1074.03 964.644 1075.67 961.943 1076.04 957.581C1076.25 955.13 1074.04 952.286 1071.63 951.795C1063.13 950.062 1054.97 957.664 1047.99 961.569C1037.14 967.639 1026.57 974.444 1016.08 981.125C1006.45 987.264 997.414 994.323 988.643 1001.63C983.945 1005.54 979.339 1009.56 974.688 1013.53C970.967 1016.71 965.242 1023.36 960.032 1023.59C961.759 1024.58 963.486 1025.57 965.213 1026.56C966.018 1027.95 965.617 1026.48 966.165 1025.1C966.66 1023.86 967.36 1022.66 968.028 1021.5C969.535 1018.89 971.321 1016.45 973.028 1013.97C978.472 1006.06 984.13 998.29 989.49 990.327C991.809 986.882 993.872 983.316 996.677 980.237C998.595 978.131 1000.77 976.057 1001.66 973.268C1004.04 965.862 996.667 961.507 990.319 963.713C974.676 969.15 960.402 978.325 948.173 989.451C941.34 995.667 934.949 1002.39 928.431 1008.93C925.498 1011.87 922.61 1014.86 919.515 1017.63C916.563 1020.28 913.536 1023.55 910.316 1025.83C913.254 1028.09 916.192 1030.35 919.13 1032.6C920.516 1027.54 924.317 1022.4 926.863 1017.81C929.854 1012.43 932.813 1007.13 935.19 1001.43C940.085 989.706 945.722 978.388 952.316 967.52C955.506 962.262 949.244 956.478 944.107 959.311C940.051 961.548 936.626 964.591 933.091 967.55C929.104 970.887 924.524 973.32 920.163 976.127C910.353 982.442 900.89 989.313 891.577 996.335C882.616 1003.09 873.826 1010.08 865.432 1017.54C861.161 1021.33 856.767 1024.83 852.158 1028.2C850.199 1029.63 848.146 1031.01 846.331 1032.62C845.207 1033.62 843.817 1035.88 842.363 1035.77C844.292 1037.24 846.22 1038.7 848.149 1040.17C848.688 1041.67 847.505 1042.15 848.709 1040.46C849.422 1039.45 850.009 1038.34 850.716 1037.32C852.049 1035.41 853.545 1033.62 854.909 1031.73C859.666 1025.14 863.554 1017.82 867.209 1010.57C869.132 1006.77 870.876 1002.88 872.749 999.047C874.704 995.049 877.356 991.479 879.45 987.562C882.693 981.495 884.872 974.329 886.266 967.593C887.279 962.699 887.096 956.107 881.087 954.651C874.287 953.003 866.447 960.811 861.332 964.257C854.302 968.994 846.959 972.638 840.668 978.427C833.953 984.607 827.968 991.472 821.915 998.288C815.173 1005.88 808.525 1013.56 801.716 1021.09C798.488 1024.66 795.164 1028.14 791.492 1031.26C788.265 1034 784.819 1037.59 780.637 1038.67C782.583 1039.18 784.529 1039.7 786.475 1040.21C786.815 1042 787.098 1042.36 787.323 1041.27C787.561 1040.63 787.857 1040.02 788.21 1039.44C788.711 1038.51 789.308 1037.63 789.857 1036.73C792.012 1033.19 794.063 1029.59 796.179 1026.02C800.605 1018.58 805.125 1011.19 809.729 1003.85C818.823 989.358 828.024 974.93 835.986 959.77C838.506 954.972 832.923 947.653 827.777 951.561C821.692 956.181 814.602 960.137 808.053 964.081C801.157 968.234 795.034 972.872 789.011 978.206C782.789 983.715 776.21 988.756 769.817 994.057C763.858 998.997 758.728 1004.79 753.019 1010C747.168 1015.34 741.244 1020.69 735.045 1025.63C732.858 1027.37 730.603 1029.05 728.248 1030.56C727.23 1031.21 726.197 1031.85 725.121 1032.4C724.454 1032.74 722.464 1033.19 722.021 1033.65C720.886 1034.84 722.127 1033.09 722.109 1033.8C722.502 1034.5 722.894 1035.19 723.287 1035.89C723.845 1038.22 724.36 1038.68 724.833 1037.25C725.426 1036.85 725.996 1035.34 726.363 1034.69C728.422 1031.02 730.357 1027.32 732.638 1023.78C737.14 1016.8 742.149 1010.12 746.989 1003.36C757.985 988.015 767.426 971.41 779.15 956.614C783.9 950.622 775.464 942.074 770.668 948.127Z"></path>
<path stroke-miterlimit="10" stroke-width="12" stroke="#315BF4" d="M1141.25 783.649H166.992C160.365 783.649 154.992 778.276 154.992 771.649V690.838C154.992 684.211 160.365 678.838 166.992 678.838H1141.25C1147.88 678.838 1153.25 684.211 1153.25 690.838V771.649C1153.25 778.277 1147.88 783.649 1141.25 783.649Z"></path>
<path stroke-miterlimit="10" stroke-width="12" stroke="#315BF4" d="M1141.25 1052.07H166.992C160.365 1052.07 154.992 1046.7 154.992 1040.07V959.258C154.992 952.631 160.365 947.258 166.992 947.258H1141.25C1147.88 947.258 1153.25 952.631 1153.25 959.258V1040.07C1153.25 1046.7 1147.88 1052.07 1141.25 1052.07Z"></path>
<path fill="#D2E9FE" d="M505.214 38.4702C505.214 38.4702 569.971 217.319 559.322 265.299C620.251 280.047 759.572 218.694 759.572 218.694L694.385 0.125C694.385 0.125 594.687 48.6952 505.214 38.4702Z"></path>
<path fill="#315BF4" d="M367.171 124.107C367.171 124.107 379.953 203.354 270.029 222.527C305.818 283.88 514.162 295.383 541.004 295.383C507.5 236.5 604.913 154.784 604.913 154.784L367.171 124.107Z"></path>
<path fill="#D2E9FE" d="M455.365 410.422C455.365 410.422 391.456 574.029 386.343 614.931C404.238 657.111 598.522 751.697 539.725 669.893C557.62 595.758 645.814 542.075 667.543 475.609C598.522 482 572.958 462.827 455.365 410.422Z"></path>
<path fill="#315BF4" d="M849.046 511.396C849.046 511.396 868.5 404 794.084 363.126C869.497 306.886 976.864 313.277 1016.49 262.15C1065.06 322.224 1025.43 407.864 1059.95 420.646C1040.77 458.992 930.85 531.847 849.046 511.396Z"></path>
<path fill="#D2E9FE" d="M676.491 756.81L787.693 925.529L1099.57 868.011L978.142 701.848L676.491 756.81Z"></path>
<path fill="#315BF4" d="M935.5 773C928.994 772.984 916.281 775.637 910 777C903.894 778.326 898.164 779.48 892 780.5C885.738 781.535 879.621 784.491 873.419 785.847C866.937 787.264 861.383 785.893 858.533 791.833C851.124 789.649 842.518 790.429 838.077 798.145C833.136 806.731 843.831 814.586 850.594 810.312C853.16 810.714 856.999 812.262 858.533 812.904C862.126 814.409 864.538 817.209 867.808 819.19C874.976 823.532 885.367 828.28 893.5 827C902.211 825.629 909.509 821.034 916 815.5C919.498 812.519 922.911 803.96 925.835 800.408C928.321 797.388 930.309 793.704 933.843 791.833C941.833 787.602 944.128 773.021 935.5 773Z"></path>
<path fill="#315BF4" d="M828.751 805.312C848.822 797.739 869.508 792.162 890.113 786.274C908.842 780.922 927.3 776.061 946.779 774.314C944.529 771.36 942.279 768.407 940.029 765.453C935.898 776.924 930.491 788.017 923.977 798.325C918.078 807.659 910.107 819.092 899.094 822.715C884.236 827.603 869.733 818.008 857.099 811.44C852.198 808.892 847.286 806.356 842.567 803.478C840.498 802.217 838.39 800.936 836.488 799.432C835.508 798.657 834.605 797.801 833.736 796.904C832.405 795.532 833.773 797.748 833.427 796.487C831.048 787.808 817.538 791.494 819.927 800.21C822.49 809.56 834.513 815.216 842.294 819.454C852.584 825.059 863.015 831.207 874.11 835.027C887.059 839.485 901.745 839.091 913.213 831.062C923.052 824.172 930.531 814.349 936.795 804.223C943.602 793.22 949.146 781.342 953.527 769.174C954.984 765.128 951.118 759.925 946.777 760.314C926.67 762.117 907.539 766.701 888.197 772.255C866.998 778.342 845.686 784.017 825.028 791.812C816.679 794.963 820.298 808.502 828.751 805.312Z"></path>
<path fill="#FF3F08" d="M578.071 772.146C578.071 772.146 813.257 862.897 874.61 823.273C887.392 883.348 856.715 1055.9 856.715 1055.9C856.715 1055.9 679.048 1053.35 565.289 983.046C526.943 856.507 578.071 772.146 578.071 772.146Z"></path>
<path fill="#315BF4" d="M143.489 874.401C143.489 874.401 337.773 875.679 404.238 834.777C425.967 885.904 474.538 1041.84 526.944 1077.63C501.381 1115.98 349.277 1173.5 268.751 1128.76C217.623 1034.17 190.781 929.363 143.489 874.401Z"></path>
<path fill="#315BF4" d="M1065.95 1022.84L835.873 1035.62C835.873 1035.62 870.5 1222 913.842 1291.25C961.134 1319.37 1215.49 1298.92 1232.11 1263.14C1182 1210 1082.56 1063.74 1065.95 1022.84Z"></path>
<path fill="#D2E9FE" d="M1384.6 694.178C1384.6 694.178 1529.04 758.087 1536.71 759.365C1544.38 760.643 1546.93 962.595 1502.2 989.438C1438.29 988.159 1336.03 914.024 1336.03 914.024C1336.03 914.024 1399.94 759.365 1384.6 694.178Z"></path>
<path fill="#315BF4" d="M1304.08 701.848C1304.08 701.848 1383.33 786.208 1429.34 782.373C1405.05 842.448 1385.88 875.68 1366.71 880.792C1366.71 880.792 1256.79 838.612 1251.67 791.319C1278.51 778.538 1302.8 761.922 1304.08 701.848Z"></path>
<path fill="#D2E9FE" d="M764.904 1576.44C764.904 1576.44 836.876 1595.4 895.047 1540.07C854.797 1523.08 834.347 1523.08 834.347 1523.08L764.904 1576.44Z"></path>
<path fill="#315BF4" d="M810.7 1417.63C845.211 1466.2 976.864 1464.92 976.864 1464.92C976.864 1464.92 955.135 1494.32 950.022 1499.43C883.557 1568.46 866.94 1533.94 834.986 1535.22C791.528 1646.43 604.913 1499.43 604.913 1499.43C708.445 1489.21 786.415 1487.93 810.7 1417.63Z"></path>
<path fill="white" d="M793.771 845.429C795.184 856.282 803.971 867.051 810.759 875.254C814.428 879.688 818.533 883.852 822.527 887.995C823.158 888.649 822.741 888.371 822.833 887.56C822.865 887.273 822.313 888.488 822.036 888.804C819.954 891.178 817.808 893.484 815.669 895.805C811.121 900.74 804.16 905.73 801.963 912.292C800.13 917.764 802.292 923.013 805.422 927.526C808.488 931.946 813.261 937.252 811.492 943.142C810.822 945.372 808.988 947.059 808.186 949.273C807.041 952.435 807.418 955.581 808.067 958.81C809.162 964.26 818.446 963.124 817.889 957.481C817.883 957.423 817.877 957.365 817.871 957.307C817.046 958.746 816.22 960.185 815.395 961.624C815.416 961.612 815.436 961.601 815.457 961.589C813.775 961.589 812.092 961.589 810.41 961.589C808.683 960.377 810.038 961.547 810.688 962.501C811.494 963.683 812.269 964.887 813.043 966.089C814.107 967.741 815.121 969.429 816.213 971.064C817.808 973.453 820.485 974.083 823.054 972.857C823.054 972.857 823.057 972.856 823.059 972.855C820.779 972.257 818.498 971.659 816.218 971.062C817.081 972.996 816.614 975.253 817.132 977.283C817.862 980.145 819.669 982.34 821.653 984.451C826.07 989.151 833.131 982.069 828.724 977.38C825.85 974.322 826.566 969.854 824.853 966.014C823.69 963.408 820.226 963.165 818.012 964.22C818.01 964.221 818.009 964.222 818.007 964.223C820.287 964.821 822.568 965.419 824.848 966.016C822.061 961.844 819.644 955.892 815.458 952.954C814.006 951.934 811.882 952.135 810.411 952.954C810.39 952.965 810.37 952.976 810.349 952.988C808.934 953.776 807.707 955.629 807.872 957.305C807.878 957.363 807.884 957.421 807.89 957.479C811.163 957.036 814.437 956.593 817.711 956.149C817.068 952.95 817.995 952.253 819.475 949.664C820.833 947.287 821.56 944.697 821.725 941.966C822.104 935.673 819.508 930.126 815.957 925.115C814.487 923.04 812.457 920.852 811.636 918.405C810.684 915.568 812.324 913.728 814.2 911.69C818.998 906.478 824.25 901.681 828.806 896.23C831.426 893.096 833.65 889.626 832.339 885.397C830.916 880.806 826.089 877.206 822.927 873.855C818.706 869.383 814.969 864.681 811.538 859.581C808.924 855.696 804.39 850.169 803.772 845.427C802.951 839.137 792.941 839.056 793.771 845.429Z"></path>
<path fill="white" d="M761.094 854.803C760.595 882.586 762.947 910.533 760.849 938.274C759.328 958.388 753.729 978.591 754.277 998.811C754.521 1007.8 768.522 1007.84 768.277 998.811C767.73 978.598 773.319 958.379 774.849 938.274C776.959 910.535 774.596 882.585 775.094 854.803C775.256 845.79 761.256 845.789 761.094 854.803Z"></path>
<path fill="white" d="M753.608 928.902C743.848 928.596 743.564 919.226 743.28 911.383C743.028 904.4 744.297 888.293 735.31 885.666C726.969 883.228 720.237 893.17 717.023 899.211C711.953 908.741 708.569 919.15 704.716 929.204C702.741 934.357 700.718 939.517 698.119 944.393C697.2 946.117 695.829 948.507 694.871 949.7C694.338 950.365 693.751 951.018 693.111 951.582C693.037 951.647 691.883 952.385 692.536 952.117C694.996 953.514 697.456 954.911 699.917 956.308C699.563 955.177 699.766 957.467 699.917 956.559C700.002 956.047 699.885 955.429 699.907 954.904C699.972 953.353 700.09 951.81 700.236 950.265C700.636 946.012 701.178 941.771 701.66 937.527C702.805 927.444 703.984 917.198 703.452 907.035C703.064 899.615 701.9 889.733 694.444 885.94C681.95 879.585 676.796 895.409 674.486 904.368C670.547 919.651 656.956 930.467 653.179 945.893C657.107 946.424 661.036 946.955 664.965 947.487C665.124 945.938 664.614 948.612 664.968 947.413C665.135 946.846 665.167 946.191 665.268 945.607C665.542 944.031 665.852 942.462 666.163 940.893C666.958 936.882 667.806 932.881 668.651 928.88C670.776 918.815 672.929 908.756 674.904 898.661C676.697 889.496 678.455 880.278 679.438 870.985C680.017 865.508 680.983 857.074 674.251 854.982C666.859 852.685 663.698 864.265 671.061 866.554C669.15 865.96 668.236 864.085 667.758 863.594C668.266 864.116 667.654 864.281 667.754 863.311C667.645 864.367 667.827 865.52 667.786 866.595C667.67 869.603 667.28 872.62 666.856 875.534C665.529 884.652 663.717 893.703 661.883 902.73C658.88 917.507 654.508 932.459 652.965 947.486C652.269 954.263 663.164 955.559 664.751 949.082C667.791 936.669 678.064 927.051 683.315 915.58C685.36 911.112 686.191 906.387 687.641 901.72C688.165 900.032 689.378 898.292 689.764 896.638C689.98 895.715 690.051 896.278 688.977 896.602C688.845 896.642 688.664 896.175 689.22 896.744C689.194 896.717 689.131 896.679 689.143 896.694C688.81 896.295 689.704 897.603 689.836 897.916C689.495 897.105 690.063 898.526 690.141 898.767C690.427 899.642 690.643 900.541 690.829 901.441C691.545 904.916 691.587 908.823 691.558 912.501C691.486 921.488 690.477 930.454 689.45 939.372C688.759 945.372 686.473 953.517 688.347 959.497C689.228 962.308 692.636 964.958 695.728 963.687C708.649 958.376 713.343 940.232 717.798 928.412C720.533 921.154 723.099 913.77 726.583 906.827C727.833 904.335 729.501 901.249 731.039 899.481C731.665 898.761 732.946 897.682 732.716 897.836C733.487 897.319 733.223 897.449 733.716 897.45C732.301 896.864 730.887 896.277 729.473 895.692C728.85 894.978 729.929 896.855 729.789 896.184C730.002 897.21 730.414 898.197 730.604 899.24C730.944 901.095 731.003 903.064 731.084 905.011C731.308 910.422 731.304 915.815 732.127 921.183C733.929 932.943 741.473 940.521 753.607 940.901C761.332 941.144 761.324 929.144 753.608 928.902Z"></path>
<path fill="white" d="M634.276 815.605C634.271 838.51 634.225 861.686 629.022 884.12C624.171 905.033 613.688 924.002 607.222 944.385C604.882 951.763 616.463 954.921 618.793 947.575C625.457 926.566 636.284 907.051 641.02 885.413C646.035 862.496 646.271 838.955 646.276 815.605C646.277 807.883 634.277 807.871 634.276 815.605Z"></path>
<path fill="white" d="M935.962 1172.48C952.506 1172.36 968.759 1169.41 984.877 1165.91C992.267 1164.3 999.637 1162.57 1007.07 1161.17C1007.62 1161.06 1008.19 1161 1008.75 1160.91C1006.76 1161.21 1009.06 1160.88 1009.31 1160.85C1011.23 1160.61 1013.15 1160.38 1015.08 1160.15C1024.77 1159.01 1034.5 1157.93 1044.09 1156.1C1051.07 1154.77 1060.12 1153.32 1062.93 1145.82C1064.33 1142.09 1061.36 1137.49 1057.69 1136.59C1049.31 1134.54 1041 1142.64 1035.19 1147.5C1027.95 1153.55 1021.13 1160.08 1014.03 1166.29C1013.71 1166.57 1011.78 1168.01 1013.39 1166.87C1012.96 1167.17 1012.55 1167.48 1012.1 1167.75C1010.43 1168.74 1008.74 1169.68 1007.01 1170.58C1002.23 1173.04 997.36 1175.32 992.551 1177.73C984.72 1181.65 973.201 1186.28 968.86 1194.48C967.207 1197.61 967.743 1200.97 970.032 1203.57C973.611 1207.64 980.704 1205.64 985.173 1204.85C992.497 1203.56 999.762 1201.92 1007.02 1200.31C1024.69 1196.39 1042.3 1192.13 1060.05 1188.56C1063.37 1187.89 1066.69 1187.3 1070.03 1186.74C1072.18 1186.38 1068.94 1186.78 1070.47 1186.68C1070.92 1186.65 1071.41 1186.62 1071.86 1186.56C1072.16 1186.52 1072.65 1186.64 1072.92 1186.54C1072.1 1186.85 1068.29 1184.95 1067.48 1183.14C1067.13 1181.88 1066.79 1180.62 1066.45 1179.36C1066.12 1173.56 1066.57 1177.86 1066.59 1177.98C1066.54 1177.67 1066.63 1176.5 1066.84 1177.19C1066.91 1177.4 1065.24 1179.4 1066.48 1177.81C1065.27 1179.36 1063.9 1180.79 1062.55 1182.2C1058.98 1185.94 1055.23 1189.51 1051.51 1193.12C1045.39 1199.06 1037.41 1205.41 1033.49 1213.16C1031.16 1217.79 1031.91 1223.3 1036.76 1225.98C1040.8 1228.22 1045.87 1227.75 1050.28 1227.19C1061.27 1225.81 1071.81 1222.52 1082.62 1220.2C1083.03 1220.11 1085.01 1219.73 1084.27 1219.86C1083.08 1220.05 1085.12 1219.76 1085.36 1219.73C1086.25 1219.62 1087.14 1219.5 1088.04 1219.38C1091.79 1218.89 1095.54 1218.39 1099.29 1217.9C1105.29 1217.12 1111.4 1216.06 1117.46 1215.94C1127.1 1215.73 1127.13 1200.73 1117.46 1200.94C1097.37 1201.36 1077.75 1206.41 1058.27 1210.63C1053.82 1211.6 1049.49 1212.61 1045.02 1212.64C1044.53 1212.64 1044.05 1212.64 1043.56 1212.62C1042.25 1212.56 1043.68 1212.72 1043.71 1212.66C1043.48 1213.04 1042.71 1211.73 1043.66 1212.73C1044.47 1213.59 1046.86 1217.04 1047.09 1218.38C1047.25 1219.31 1046.45 1220.45 1046.73 1220.15C1047.2 1219.67 1047.52 1218.9 1047.91 1218.36C1047.05 1219.57 1048.35 1217.84 1048.65 1217.49C1049.25 1216.79 1049.86 1216.1 1050.49 1215.42C1052.14 1213.61 1053.85 1211.87 1055.58 1210.14C1059.06 1206.64 1062.63 1203.24 1066.17 1199.79C1071.15 1194.93 1079.28 1188.76 1081.14 1181.69C1083.73 1171.82 1073.42 1171.21 1066.99 1172.14C1050.87 1174.46 1034.95 1178.64 1019.08 1182.23C1009.19 1184.48 999.295 1186.75 989.356 1188.8C985.942 1189.5 982.522 1190.15 979.088 1190.74C978.076 1190.92 977.19 1190.95 978.873 1190.79C978.407 1190.84 977.921 1190.87 977.459 1190.94C977.18 1190.99 976.514 1190.87 976.277 1190.99C976.198 1191.04 976.058 1190.94 975.98 1190.98C977.105 1190.44 980.441 1192.75 980.636 1192.97C981.027 1196 981.418 1199.03 981.809 1202.06C982.538 1200.68 981.955 1201.71 982.258 1201.39C982.583 1201.04 983.485 1200.22 983.572 1200.15C984.773 1199.15 986.918 1197.86 988.532 1196.89C992.649 1194.44 996.936 1192.26 1001.23 1190.13C1008.62 1186.45 1016.63 1183.34 1023.12 1178.14C1029.39 1173.13 1035.11 1167.41 1041.13 1162.11C1044.21 1159.41 1047.31 1156.68 1050.63 1154.28C1051.96 1153.32 1053.34 1152.47 1054.73 1151.62C1055.68 1151.03 1055.8 1150.53 1055.2 1151.31C1055.52 1151.2 1055.84 1151.11 1056.16 1151.04C1055.35 1151.27 1054.53 1151.28 1053.7 1151.06C1051.96 1147.98 1050.21 1144.91 1048.46 1141.83C1048.85 1140.37 1049.65 1139.29 1050.88 1138.58C1050.76 1138.66 1050.64 1138.74 1050.52 1138.82C1050.54 1139 1048.88 1139.65 1050.39 1138.99C1048.97 1139.61 1047.4 1139.99 1045.89 1140.37C1042.15 1141.33 1038.33 1141.99 1034.51 1142.6C1026.64 1143.86 1018.71 1144.7 1010.8 1145.67C985.593 1148.73 961.596 1157.3 935.958 1157.48C926.313 1157.54 926.292 1172.54 935.962 1172.48Z"></path>
<path fill="white" d="M1111.91 1242.81C1111.93 1242.74 1111.94 1242.68 1111.96 1242.61C1111.71 1243.21 1111.46 1243.81 1111.21 1244.41C1111.22 1244.37 1111.24 1244.34 1111.26 1244.31C1110.87 1244.81 1110.48 1245.32 1110.09 1245.82C1110.11 1245.8 1110.13 1245.77 1110.16 1245.75C1109.65 1246.14 1109.15 1246.53 1108.64 1246.92C1108.67 1246.9 1108.69 1246.88 1108.72 1246.87C1108.13 1247.12 1107.53 1247.37 1106.93 1247.62C1106.98 1247.6 1107.02 1247.59 1107.08 1247.58C1106.41 1247.67 1105.75 1247.76 1105.08 1247.85C1105.14 1247.84 1105.19 1247.85 1105.25 1247.85C1104.59 1247.76 1103.92 1247.67 1103.26 1247.58C1103.37 1247.6 1103.47 1247.63 1103.58 1247.67C1102.98 1247.42 1102.38 1247.17 1101.79 1246.92C1102.02 1247.02 1102.24 1247.15 1102.44 1247.31C1101.94 1246.92 1101.43 1246.53 1100.92 1246.14C1101.24 1246.38 1101.52 1246.66 1101.77 1246.97C1101.38 1246.47 1100.99 1245.96 1100.59 1245.46C1100.79 1245.71 1100.96 1245.99 1101.09 1246.28C1100.84 1245.69 1100.59 1245.09 1100.34 1244.49C1100.4 1244.65 1100.45 1244.82 1100.47 1244.99C1100.39 1244.32 1100.3 1243.66 1100.21 1242.99C1100.22 1243.1 1100.22 1243.2 1100.21 1243.31C1100.3 1242.64 1100.39 1241.98 1100.48 1241.31C1100.46 1241.41 1100.44 1241.5 1100.4 1241.6C1100.65 1241 1100.91 1240.4 1101.16 1239.81C1101.12 1239.88 1101.09 1239.94 1101.04 1240C1101.43 1239.49 1101.82 1238.99 1102.21 1238.48C1102.16 1238.55 1102.1 1238.6 1102.04 1238.65C1102.55 1238.26 1103.05 1237.87 1103.56 1237.48C1103.45 1237.56 1103.35 1237.62 1103.23 1237.67C1103.83 1237.42 1104.43 1237.17 1105.02 1236.92C1104.79 1237.01 1104.56 1237.06 1104.31 1237.1C1104.98 1237.01 1105.64 1236.92 1106.31 1236.83C1105.97 1236.87 1105.64 1236.87 1105.3 1236.86C1105.96 1236.95 1106.63 1237.04 1107.29 1237.13C1107.23 1237.1 1107.16 1237.08 1107.1 1237.05C1107.69 1237.3 1108.29 1237.55 1108.89 1237.8C1108.6 1237.67 1108.33 1237.52 1108.07 1237.32C1108.58 1237.72 1109.08 1238.11 1109.59 1238.5C1109.46 1238.39 1109.35 1238.28 1109.24 1238.15C1109.63 1238.66 1110.02 1239.17 1110.41 1239.67C1110.32 1239.55 1110.24 1239.42 1110.17 1239.28C1110.42 1239.88 1110.67 1240.48 1110.93 1241.08C1110.84 1240.88 1110.8 1240.7 1110.76 1240.5C1110.85 1241.16 1110.94 1241.82 1111.03 1242.49C1111.02 1242.32 1111.02 1242.17 1111.03 1242C1110.94 1242.67 1110.85 1243.33 1110.76 1244C1110.82 1243.61 1110.93 1243.26 1111.08 1242.9C1110.83 1243.5 1110.58 1244.1 1110.32 1244.69C1110.36 1244.63 1110.39 1244.56 1110.42 1244.5C1110.03 1245 1109.64 1245.51 1109.24 1246.01C1109.3 1245.96 1109.36 1245.92 1109.42 1245.87C1108.92 1246.26 1108.41 1246.65 1107.91 1247.04C1108.22 1246.8 1108.53 1246.59 1108.89 1246.43C1108.29 1246.68 1107.69 1246.94 1107.09 1247.19C1107.28 1247.12 1107.46 1247.07 1107.65 1247.04C1106.99 1247.13 1106.32 1247.22 1105.66 1247.31C1105.74 1247.3 1105.83 1247.3 1105.91 1247.31C1105.25 1247.22 1104.58 1247.13 1103.92 1247.04C1104.04 1247.06 1104.14 1247.09 1104.26 1247.14C1103.66 1246.89 1103.06 1246.64 1102.46 1246.38C1102.54 1246.42 1102.61 1246.46 1102.67 1246.51C1102.16 1246.12 1101.66 1245.73 1101.15 1245.34C1101.25 1245.43 1101.34 1245.52 1101.42 1245.63C1101.03 1245.13 1100.64 1244.62 1100.25 1244.11C1100.34 1244.25 1100.41 1244.38 1100.48 1244.52C1100.22 1243.92 1099.97 1243.33 1099.72 1242.73C1099.85 1243.03 1099.93 1243.34 1100.01 1243.66C1100.41 1245.45 1101.9 1247.24 1103.45 1248.14C1105.06 1249.08 1107.43 1249.48 1109.23 1248.9C1111.05 1248.31 1112.8 1247.19 1113.71 1245.45C1114.68 1243.62 1114.93 1241.71 1114.47 1239.67C1113.73 1236.38 1111.46 1233.72 1108.24 1232.67C1105.7 1231.84 1102.57 1232.44 1100.42 1234.02C1099.06 1235.02 1098.28 1235.53 1097.42 1237.02C1097.02 1237.72 1096.68 1238.59 1096.43 1239.39C1095.91 1241.08 1095.93 1242.85 1096.31 1244.56C1096.89 1247.17 1098.9 1249.61 1101.32 1250.76C1102.85 1251.49 1104.45 1251.98 1106.16 1251.85C1107.86 1251.72 1109.31 1251.49 1110.81 1250.63C1112.85 1249.45 1114.36 1247.6 1114.94 1245.3C1115.83 1241.83 1114.35 1237.97 1111.68 1235.65C1109.79 1234 1107.81 1232.98 1105.25 1232.85C1101.84 1232.67 1098.05 1235.38 1097.45 1238.82C1097.14 1239.82 1097.09 1240.81 1097.31 1241.81C1097.36 1242.81 1097.66 1243.74 1098.2 1244.6C1099.12 1246.16 1100.9 1247.64 1102.69 1248.05C1104.61 1248.49 1106.76 1248.39 1108.47 1247.29C1110.02 1246.29 1111.58 1244.7 1111.91 1242.81Z"></path>
<path fill="white" d="M1145.02 1245.49C1146.05 1245.13 1147.1 1244.76 1148.18 1244.6C1147.52 1244.69 1146.85 1244.78 1146.19 1244.87C1146.41 1244.85 1146.63 1244.83 1146.85 1244.86C1146.19 1244.77 1145.52 1244.68 1144.86 1244.59C1144.91 1244.6 1144.96 1244.61 1145.01 1244.63C1144.41 1244.37 1143.81 1244.12 1143.21 1243.87C1143.25 1243.89 1143.29 1243.91 1143.32 1243.93C1142.82 1243.54 1142.31 1243.15 1141.8 1242.76C1141.82 1242.77 1141.83 1242.78 1141.84 1242.8C1141.45 1242.29 1141.06 1241.78 1140.67 1241.28C1140.69 1241.31 1140.71 1241.34 1140.72 1241.37C1140.47 1240.77 1140.22 1240.18 1139.97 1239.58C1139.97 1239.6 1139.98 1239.61 1139.98 1239.63C1139.89 1238.97 1139.8 1238.3 1139.71 1237.64C1139.72 1237.68 1139.71 1237.72 1139.71 1237.76C1139.8 1237.1 1139.88 1236.43 1139.97 1235.77C1139.97 1235.82 1139.95 1235.87 1139.93 1235.92C1140.18 1235.32 1140.44 1234.72 1140.69 1234.12C1140.6 1234.33 1140.47 1234.51 1140.33 1234.69C1140.72 1234.18 1141.11 1233.68 1141.5 1233.17C1140.93 1233.87 1140.24 1234.48 1139.56 1235.07C1143.74 1236.17 1147.92 1237.27 1152.09 1238.38C1152.07 1238.32 1152.06 1238.26 1152.05 1238.19C1152.14 1238.86 1152.23 1239.52 1152.32 1240.19C1152.31 1240.04 1152.32 1239.9 1152.33 1239.75C1152.24 1240.42 1152.15 1241.08 1152.06 1241.75C1152.16 1241.07 1152.38 1240.41 1152.65 1239.78C1152.39 1240.38 1152.14 1240.98 1151.89 1241.58C1152.09 1241.11 1152.31 1240.66 1152.61 1240.26C1152.22 1240.76 1151.83 1241.27 1151.44 1241.77C1151.53 1241.65 1151.63 1241.54 1151.74 1241.45C1151.24 1241.84 1150.73 1242.23 1150.22 1242.62C1150.28 1242.58 1150.33 1242.55 1150.4 1242.52C1149.8 1242.77 1149.2 1243.02 1148.61 1243.27C1148.63 1243.27 1148.64 1243.26 1148.66 1243.26C1148 1243.35 1147.33 1243.43 1146.67 1243.52C1146.7 1243.52 1146.74 1243.52 1146.77 1243.52C1146.11 1243.43 1145.45 1243.34 1144.78 1243.25C1144.8 1243.26 1144.81 1243.26 1144.83 1243.27C1144.23 1243.02 1143.64 1242.76 1143.04 1242.51C1143.06 1242.52 1143.07 1242.53 1143.09 1242.54C1142.58 1242.15 1142.08 1241.76 1141.57 1241.37C1141.61 1241.39 1141.64 1241.42 1141.66 1241.45C1141.27 1240.94 1140.88 1240.44 1140.49 1239.93C1140.54 1240 1140.57 1240.07 1140.61 1240.15C1140.36 1239.55 1140.1 1238.95 1139.85 1238.36C1139.93 1238.56 1139.96 1238.77 1140 1238.99C1139.91 1238.33 1139.82 1237.66 1139.73 1237C1139.77 1237.42 1139.79 1237.84 1139.79 1238.26C1139.78 1240.18 1140.62 1242.2 1141.98 1243.56C1143.28 1244.86 1145.42 1245.84 1147.29 1245.76C1151.35 1245.58 1154.78 1242.47 1154.79 1238.26C1154.79 1235.11 1154 1232.17 1151.42 1230.17C1148.86 1228.19 1145.66 1228.1 1142.83 1229.56C1141.46 1230.27 1140.5 1231.45 1139.66 1232.69C1138.86 1233.86 1138.33 1235.24 1137.89 1236.58C1137.76 1236.97 1137.67 1237.36 1137.6 1237.76C1137.47 1238.51 1137.3 1239.31 1137.31 1240.08C1137.32 1240.75 1137.39 1241.72 1137.63 1242.37C1138.54 1244.88 1140.19 1246.87 1142.87 1247.61C1145.59 1248.36 1148.09 1247.46 1150.16 1245.68C1151.39 1244.62 1152.58 1243.45 1153.44 1242.05C1154.98 1239.52 1155.16 1236.31 1153.62 1233.71C1152.11 1231.17 1149.13 1229.62 1146.18 1229.87C1144.36 1230.03 1142.74 1230.43 1141.03 1231.03C1139.17 1231.68 1137.57 1232.74 1136.55 1234.48C1135.61 1236.08 1135.21 1238.45 1135.79 1240.25C1136.38 1242.07 1137.5 1243.82 1139.24 1244.74C1140.96 1245.64 1143.12 1246.15 1145.02 1245.49Z"></path>
<path fill="white" d="M428.95 1049.27C429.518 1049.27 430.086 1049.27 430.654 1049.27C432.449 1049.27 434.334 1048.49 435.604 1047.22C436.287 1046.59 436.769 1045.83 437.051 1044.97C437.489 1044.13 437.69 1043.23 437.654 1042.27C437.573 1040.46 436.978 1038.58 435.604 1037.32C434.234 1036.06 432.551 1035.27 430.654 1035.27C430.086 1035.27 429.518 1035.27 428.95 1035.27C427.155 1035.27 425.269 1036.05 424 1037.32C423.318 1037.95 422.835 1038.7 422.553 1039.57C422.115 1040.41 421.914 1041.3 421.95 1042.27C422.031 1044.08 422.626 1045.96 424 1047.22C425.369 1048.48 427.053 1049.27 428.95 1049.27Z"></path>
<path fill="white" d="M344.752 914.288C367.699 941.662 381.299 975.089 399.045 1005.75C403.556 1013.55 415.659 1006.51 411.133 998.686C392.723 966.877 378.462 932.793 354.651 904.388C348.857 897.476 338.999 907.424 344.752 914.288Z"></path>
<path fill="white" d="M376.118 1062.05C376.686 1062.05 377.254 1062.05 377.822 1062.05C379.617 1062.05 381.502 1061.27 382.772 1060C383.455 1059.37 383.937 1058.62 384.219 1057.75C384.657 1056.91 384.858 1056.01 384.822 1055.05C384.741 1053.24 384.146 1051.36 382.772 1050.1C381.402 1048.84 379.719 1048.05 377.822 1048.05C377.254 1048.05 376.686 1048.05 376.118 1048.05C374.323 1048.05 372.437 1048.83 371.168 1050.1C370.485 1050.74 370.003 1051.49 369.721 1052.35C369.283 1053.19 369.082 1054.09 369.118 1055.05C369.199 1056.86 369.793 1058.74 371.168 1060C372.538 1061.26 374.221 1062.05 376.118 1062.05Z"></path>
<path fill="white" d="M303.608 941.844C321.53 966.717 333.012 995.409 349.623 1021.09C354.499 1028.63 366.624 1021.62 361.712 1014.03C345.101 988.343 333.62 959.651 315.697 934.778C310.478 927.535 298.328 934.516 303.608 941.844Z"></path>
<path fill="white" d="M240.551 936.732C263.467 967.093 281.696 1000.56 302.756 1032.17C307.728 1039.63 319.86 1032.63 314.845 1025.1C293.784 993.495 275.556 960.028 252.64 929.666C250.346 926.626 246.624 925.128 243.063 927.155C240.071 928.856 238.279 933.721 240.551 936.732Z"></path>
<path fill="white" d="M318.174 1065.46C316.893 1065.42 315.774 1065.1 314.65 1063.92C315.346 1064.65 313.552 1062.31 314.112 1063.2C314.651 1064.06 313.461 1061.19 313.864 1062.67C314.071 1063.43 313.656 1063.74 313.805 1061.85C313.76 1062.42 313.8 1063.11 313.808 1063.7C313.777 1061.52 314.092 1062.16 313.865 1062.89C313.499 1064.06 314.734 1061.2 314.249 1062.04C313.894 1062.6 314.166 1062.25 315.065 1060.99C315.987 1060.45 316.91 1059.91 317.833 1059.38C321.114 1059.68 322.121 1059.64 320.855 1059.26C322.126 1059.85 322.463 1059.97 321.866 1059.62C323.457 1060.6 323.009 1060.57 322.5 1060.04C321.766 1059.29 323.553 1061.75 322.846 1060.38C323.857 1062.34 323.328 1061.72 323.2 1061.1C323.346 1062.56 323.401 1062.95 323.365 1062.25C323.102 1063.73 323.049 1064.13 323.206 1063.45C322.732 1064.76 322.041 1065.89 320.789 1066.61C319.485 1067.09 319.179 1067.22 319.87 1067.02C318.531 1067.15 318.249 1067.2 319.026 1067.16C322.683 1067.06 326.199 1064.02 326.026 1060.16C325.86 1056.46 322.947 1053.05 319.026 1053.16C315.687 1053.26 312.52 1054.55 310.702 1057.48C309.328 1059.7 309.008 1062.56 309.765 1065.06C311.275 1070.03 316.265 1074.21 321.667 1072.83C326.36 1071.64 328.168 1066.16 327.805 1061.85C327.347 1056.41 324.061 1051.64 318.173 1051.46C314.509 1051.35 311.007 1054.76 311.173 1058.46C311.348 1062.35 314.249 1065.34 318.174 1065.46Z"></path>
<path fill="#315BF4" d="M477.068 490.945C476.933 500.326 475.145 509.546 474.485 518.888C477.431 518.489 480.378 518.089 483.324 517.691C483.497 518.544 483.97 517.232 484.49 516.764C485.687 515.688 486.952 514.805 488.317 513.947C491.947 511.665 495.813 509.769 499.622 507.811C504.898 505.099 513.612 501.757 515.306 495.338C516.785 489.733 508.106 487.341 506.627 492.945C506.757 492.451 506.458 493.161 506.181 493.453C505.8 493.854 505.353 494.163 504.913 494.493C503.27 495.723 501.388 496.7 499.593 497.679C495.638 499.834 491.567 501.766 487.621 503.937C481.679 507.207 473.004 512.02 474.645 520.084C475.71 525.316 483.145 523.688 483.484 518.888C484.144 509.546 485.932 500.328 486.067 490.947C486.152 485.153 477.152 485.149 477.068 490.945Z"></path>
<path fill="#315BF4" d="M511.891 515.284C519.57 520.652 528.01 525.216 537.285 527.047C546.626 528.892 555.985 528.05 565.208 525.963C570.855 524.685 568.465 516.007 562.815 517.286C554.755 519.11 546.447 519.932 538.309 518.079C530.254 516.246 523.148 512.207 516.434 507.514C511.675 504.188 507.172 511.986 511.891 515.284Z"></path>
<path fill="#315BF4" d="M450.226 558.051C450.03 565.366 447.92 572.91 449.83 580.157C450.535 582.833 454.02 584.47 456.44 582.846C468.988 574.428 479.62 563.311 490.502 552.925C494.7 548.918 488.33 542.56 484.138 546.561C473.826 556.403 463.786 567.099 451.898 575.075C454.102 575.971 456.305 576.868 458.509 577.764C456.856 571.491 459.056 564.418 459.227 558.051C459.381 552.257 450.381 552.261 450.226 558.051Z"></path>
<path fill="#315BF4" d="M489.319 578.369C496.608 581.154 503.488 584.864 510.756 587.695C518.421 590.681 526.406 591.91 534.613 591.951C540.405 591.98 540.412 582.98 534.613 582.951C518.571 582.871 506.243 575.243 491.712 569.691C486.296 567.621 483.954 576.318 489.319 578.369Z"></path>
<path fill="#315BF4" d="M471.316 609.178C470.672 616.244 469.169 623.211 466.244 629.703C464.412 633.769 468.18 637.999 472.401 635.86C477.463 633.295 481.255 629.083 485.258 625.179C489.108 621.425 493.242 617.804 498.822 620.408C504.031 622.84 508.611 615.119 503.364 612.637C497.823 610.015 491.477 612.158 493.201 619.296C493.784 621.714 495.076 624.074 496.26 626.245C496.862 627.348 497.48 628.452 498.147 629.516C498.53 630.126 499.294 632.079 498.731 630.24C500.935 628.546 503.138 626.852 505.341 625.158C505.326 625.148 505.311 625.138 505.296 625.128C500.389 621.857 496.214 629.518 500.754 632.899C502.266 634.025 510.351 635.023 510.46 635.298C512.566 640.621 521.274 638.3 519.139 632.904C517.941 629.877 516.019 627.972 512.902 626.93C510.614 626.165 507.218 626.558 505.297 625.127C503.783 627.717 502.269 630.308 500.755 632.898C500.77 632.908 500.785 632.918 500.8 632.928C504.072 635.109 508.527 631.494 507.41 627.846C506.78 625.785 505.243 623.896 504.215 622.033C503.533 620.797 503.016 619.375 502.282 618.181C502.134 617.94 501.865 616.994 501.877 617.002C503.058 617.815 497.008 619.55 498.822 620.408C500.336 617.818 501.85 615.227 503.364 612.637C496.548 609.455 489.992 609.911 483.912 614.441C478.27 618.644 474.211 624.867 467.857 628.087C469.909 630.139 471.961 632.192 474.014 634.244C477.641 626.193 479.515 617.951 480.315 609.177C480.841 603.413 471.838 603.448 471.316 609.178Z"></path>
<path fill="white" d="M957.954 1088.12C964.736 1080.85 974.417 1079.09 983.789 1081.85C991.608 1084.14 1000.12 1090.18 1001.22 1098.82C1002.26 1107.06 995.287 1116.74 987.158 1118.72C978.741 1120.77 969.825 1116.4 964.074 1110.32C956.895 1102.73 955.844 1092.64 963.067 1084.71C969.126 1078.07 959.253 1068.14 953.168 1074.81C942.814 1086.17 940.987 1101.76 949.75 1114.7C957.435 1126.04 971.37 1134.25 985.343 1133.1C1000.65 1131.84 1013.4 1118.66 1015.06 1103.46C1016.61 1089.23 1006.77 1076.79 994.352 1070.98C978.908 1063.77 960.053 1065.37 948.055 1078.22C941.912 1084.8 951.791 1094.72 957.954 1088.12Z"></path>
</svg>
